<?xml version="1.0" encoding="UTF-8" standalone="no"?>
<svg
   width="1024"
   height="1024"
   viewBox="0 0 1024 1024"
   version="1.1"
   id="svg17"
   sodipodi:docname="logo.svg"
   inkscape:version="1.4.2 (1:1.4.2+202505120738+ebf0e940d0)"
   inkscape:export-filename="logo.png"
   inkscape:export-xdpi="24"
   inkscape:export-ydpi="24"
   xmlns:inkscape="http://www.inkscape.org/namespaces/inkscape"
   xmlns:sodipodi="http://sodipodi.sourceforge.net/DTD/sodipodi-0.dtd"
   xmlns="http://www.w3.org/2000/svg"
   xmlns:svg="http://www.w3.org/2000/svg">
  <defs
     id="defs17" />
  <sodipodi:namedview
     id="namedview17"
     pagecolor="#ffffff"
     bordercolor="#666666"
     borderopacity="1.0"
     inkscape:showpageshadow="2"
     inkscape:pageopacity="0.0"
     inkscape:pagecheckerboard="0"
     inkscape:deskcolor="#d1d1d1"
     inkscape:zoom="0.78808594"
     inkscape:cx="512"
     inkscape:cy="512"
     inkscape:window-width="1860"
     inkscape:window-height="1016"
     inkscape:window-x="60"
     inkscape:window-y="27"
     inkscape:window-maximized="1"
     inkscape:current-layer="svg17" />
  <g
     id="g17"
     transform="translate(-16.681118,-16.711945)">
    <path
       fill="#dda15e"
       d="m 487.42336,115.94252 c -13.93079,5.06477 -28.87933,5.79404 -43.323,8.80191 -24.71746,5.15024 -49.78485,12.99049 -73.12392,22.57775 C 227.28503,204.90719 111.68491,371.71596 119.95256,529.29809 H 34.482196 l -0.08416,-0.90824 C 33.343143,516.10191 34.507333,503.18622 35.117679,490.86088 46.956598,251.76431 251.05685,53.440458 487.42336,33.423942 Z"
       id="path1"
       style="stroke-width:2.67129" />
    <path
       fill="#dda15e"
       d="M 569.97159,115.94252 V 33.423942 c 21.75766,2.699341 43.08525,5.067434 64.50634,10.030965 225.7401,52.308156 388.07447,252.564683 388.88387,485.843183 h -88.03507 c 0.20301,-5.14224 0.59837,-10.36194 0,-15.48547 C 935.5805,469.86453 923.62112,418.58376 907.36632,377.87329 859.20295,249.6166 741.55662,150.15108 607.26014,123.96441 594.80658,121.5362 581.8989,120.4383 569.97159,115.94252 Z"
       id="path2"
       style="stroke-width:2.67129" />
    <path
       fill="#758d30"
       d="m 370.97644,147.32218 c 23.33907,-9.58726 48.40646,-17.42751 73.12392,-22.57775 14.44367,-3.00787 29.39221,-3.73714 43.323,-8.80191 10.33255,1.32229 66.75288,1.69093 77.87881,0.49419 l 4.66942,-0.49419 c 11.92731,4.49578 24.83499,5.59368 37.28855,8.02189 134.29648,26.18667 251.94281,125.65219 300.10618,253.90888 -31.37431,8.88471 -103.58732,-0.65447 -132.87802,-10.40736 -14.20059,-4.72818 -27.13765,-13.1374 -41.7229,-16.69022 23.50201,-4.25269 48.89798,-37.29924 60.92948,-55.73115 10.28982,-15.75794 -2.47095,-36.70621 -20.87347,-37.69992 -19.37487,-1.04181 -61.57593,50.79459 -62.51622,69.10095 -6.86522,-0.42206 -167.20679,-63.25884 -172.06587,-67.34591 20.75327,-13.08399 20.12016,-56.58596 14.86307,-76.23063 -6.81447,-25.46275 -43.61952,-26.5179 -49.71006,-0.2511 -1.84586,7.96044 -1.53866,49.13305 -0.87351,57.94029 -22.89296,-6.04512 -113.65274,-76.47371 -131.54238,-93.23606 z"
       id="path3"
       style="stroke-width:2.67129" />
    <path
       fill="#283618"
       d="m 119.95256,529.29809 c -8.26765,-157.58213 107.33247,-324.3909 251.02388,-381.97591 17.88964,16.76235 108.64942,87.19094 131.54238,93.23606 6.30158,15.84611 18.96083,23.62223 35.7205,18.54144 4.85908,4.08707 165.20065,66.92385 172.06587,67.34591 3.31507,13.76784 9.93719,19.4657 22.46021,24.33012 14.58525,3.55282 27.52231,11.96204 41.7229,16.69022 29.2907,9.75289 101.50371,19.29207 132.87802,10.40736 16.2548,40.71047 28.21418,91.99124 27.96041,135.93933 -0.48084,18.49869 0.29117,36.6127 -1.72299,55.07667 C 920.69339,687.1981 856.66254,795.07817 760.55484,864.65462 620.10371,966.33464 417.64924,955.88989 280.78031,852.88759 178.48856,775.90366 122.12699,656.3527 119.95256,529.29809 Z M 279.37788,259.09968 c -6.26952,1.28222 -11.30491,3.24295 -15.03938,8.82861 -15.1008,22.58043 12.29328,42.90361 26.24544,57.37667 12.29862,12.75541 20.0053,27.05216 39.78888,25.47075 7.20715,-1.75771 12.61116,-4.61866 16.65282,-11.12325 13.23892,-21.29553 -14.0403,-40.99364 -27.10024,-54.21386 -11.64149,-11.78572 -21.81643,-29.41625 -40.54752,-26.33892 z m 240.04754,32.61111 C 388.71114,297.41935 287.44517,408.131 293.38613,538.8346 c 5.94094,130.70359 116.83425,231.77188 247.52716,225.59853 130.36434,-6.16 231.12276,-116.71137 225.19516,-247.0864 C 760.18353,386.97438 649.81113,286.01828 519.42542,291.71079 Z M 186.54517,501.88797 c -30.64237,3.91611 -33.59148,47.22041 -1.77908,52.48819 15.39999,2.54842 40.05333,1.21811 56.0143,0.81742 23.33373,-4.28475 34.04561,-34.49705 12.12766,-48.82585 -11.76703,-7.69333 -51.04036,-4.7175 -66.36288,-4.47976 z m 630.62501,0 c -23.61955,4.8377 -34.10704,36.78902 -10.59166,49.88903 10.02268,5.583 45.37722,4.02564 58.39174,3.41658 23.25092,-3.57418 33.39649,-33.67162 13.02788,-47.68789 -13.3324,-9.17321 -44.66665,-4.20728 -60.82796,-5.61772 z m -89.92901,205.08836 c -16.57535,3.51275 -27.29792,22.81817 -16.80776,37.84418 9.92651,14.21661 44.08164,53.57007 64.95243,51.0644 15.32788,-4.52784 23.94546,-17.79881 18.50137,-33.59149 -3.12542,-9.06368 -45.68175,-58.5173 -66.64604,-55.31709 z m -407.53748,0 c -13.63428,5.37464 -52.23977,44.53577 -56.90118,55.01524 -8.3451,18.74445 10.41804,34.5478 29.80093,33.89334 12.2078,-4.61065 52.57634,-45.83401 56.48712,-54.67065 8.42792,-19.05164 -10.99771,-36.0838 -29.38687,-34.23793 z m 209.01515,90.83191 c -9.04766,2.4282 -16.22542,5.82075 -21.22608,14.2353 -10.50886,17.68662 -14.11777,83.03976 25.58563,84.59979 12.87563,-1.85121 21.74698,-8.82594 23.86798,-21.86451 3.75851,-23.10667 8.99424,-80.18414 -28.22753,-76.97058 z"
       id="path4"
       style="stroke-width:2.67129" />
    <path
       fill="#fefae0"
       d="m 502.51882,240.55824 c -0.66515,-8.80724 -0.97235,-49.97985 0.87351,-57.94029 6.09054,-26.2668 42.89559,-25.21165 49.71006,0.2511 5.25709,19.64467 5.8902,63.14664 -14.86307,76.23063 -16.75967,5.08079 -29.41892,-2.69533 -35.7205,-18.54144 z"
       id="path5"
       style="stroke-width:2.67129" />
    <path
       fill="#fefae0"
       d="m 710.30519,326.44559 c 0.94029,-18.30636 43.14135,-70.14276 62.51622,-69.10095 18.40252,0.99371 31.16329,21.94198 20.87347,37.69992 -12.0315,18.43191 -37.42747,51.47846 -60.92948,55.73115 -12.52302,-4.86442 -19.14514,-10.56228 -22.46021,-24.33012 z"
       id="path6"
       style="stroke-width:2.67129" />
    <path
       fill="#cdd7a5"
       d="m 330.37282,350.77571 c -19.78358,1.58141 -27.49026,-12.71534 -39.78888,-25.47075 -13.95216,-14.47306 -41.34624,-34.79624 -26.24544,-57.37667 3.73447,-5.58566 8.76986,-7.54639 15.03938,-8.82861 18.73109,-3.07733 28.90603,14.5532 40.54752,26.33892 13.05994,13.22022 40.33916,32.91833 27.10024,54.21386 -4.04166,6.50459 -9.44567,9.36554 -16.65282,11.12325 z"
       id="path7"
       style="stroke-width:2.67129" />
    <path
       fill="#fefae0"
       d="M 540.91329,764.43313 C 410.22038,770.60648 299.32707,669.53819 293.38613,538.8346 287.44517,408.131 388.71114,297.41935 519.42542,291.71079 c 130.38571,-5.69251 240.75811,95.26359 246.68303,225.63594 5.9276,130.37503 -94.83082,240.9264 -225.19516,247.0864 z M 512.10074,317.07471 c -0.91358,18.60286 -0.024,37.72663 -0.0187,56.37225 l 0.0187,114.69187 c -0.4648,5.75931 -4.55188,6.41377 -8.84197,9.61398 -19.7916,14.75889 -13.76517,24.37286 -13.89873,42.9597 -32.97975,27.13498 -61.49579,62.21437 -94.5076,90.51937 7.53839,8.1688 15.64307,15.77931 23.36044,23.77181 30.1749,-28.29164 61.11646,-62.85814 91.96186,-89.1944 38.04185,18.02321 77.68648,-34.63062 44.39953,-66.33884 -2.87164,-2.73273 -6.36569,-4.57325 -8.81526,-7.77078 V 317.07471 Z"
       id="path8"
       style="stroke-width:2.67129" />
    <path
       fill="#050603"
       d="M 512.10074,488.13883 512.082,373.44696 c -0.006,-18.64562 -0.89489,-37.76939 0.0187,-56.37225 h 33.65827 v 174.62496 c -14.98327,-4.62401 -32.89428,3.04794 -33.65827,-3.56084 z"
       id="path9"
       style="stroke-width:2.67129" />
    <path
       fill="#dda15e"
       d="m 512.10074,488.13883 c 0.76399,6.60878 18.675,-1.06317 33.65827,3.56084 2.44957,3.19753 5.94362,5.03805 8.81526,7.77078 33.28695,31.70822 -6.35768,84.36205 -44.39953,66.33884 -9.65938,-6.50459 -17.49696,-13.47399 -20.8147,-25.09678 0.13356,-18.58684 -5.89287,-28.20081 13.89873,-42.9597 4.29009,-3.20021 8.37717,-3.85467 8.84197,-9.61398 z"
       id="path10"
       style="stroke-width:2.67129" />
    <path
       fill="#fefefe"
       d="m 240.78039,555.19358 c -15.96097,0.40069 -40.61431,1.731 -56.0143,-0.81742 -31.8124,-5.26778 -28.86329,-48.57208 1.77908,-52.48819 15.32252,-0.23774 54.59585,-3.21357 66.36288,4.47976 21.91795,14.3288 11.20607,44.5411 -12.12766,48.82585 z"
       id="path11"
       style="stroke-width:2.67129" />
    <path
       fill="#fefefe"
       d="m 864.97026,555.19358 c -13.01452,0.60906 -48.36906,2.16642 -58.39174,-3.41658 -23.51538,-13.10001 -13.02789,-45.05133 10.59166,-49.88903 16.16131,1.41044 47.49556,-3.55549 60.82796,5.61772 20.36861,14.01627 10.22304,44.11371 -13.02788,47.68789 z"
       id="path12"
       style="stroke-width:2.67129" />
    <path
       fill="#8c4c06"
       d="m 935.32673,513.81262 c 0.59837,5.12353 0.20301,10.34323 0,15.48547 h 88.03507 c 0.1228,8.88204 -0.1657,17.6412 -0.7453,26.50188 C 1004.6814,829.70613 769.76812,1042.0604 494.41679,1022.7843 256.74136,1006.1449 54.166679,812.83158 35.783382,573.91398 34.657975,559.28599 33.427576,543.95546 34.482196,529.29809 h 85.470364 c 2.17443,127.05461 58.536,246.60557 160.82775,323.5895 136.86893,103.0023 339.3234,113.44705 479.77453,11.76703 96.1077,-69.57645 160.13855,-177.45652 173.0489,-295.76533 2.01416,-18.46397 1.24215,-36.57798 1.72299,-55.07667 z"
       id="path13"
       style="stroke-width:2.67129" />
    <path
       fill="#050603"
       d="m 394.85244,631.23188 c 33.01181,-28.305 61.52785,-63.38439 94.5076,-90.51937 3.31774,11.62279 11.15532,18.59219 20.8147,25.09678 -30.8454,26.33626 -61.78696,60.90276 -91.96186,89.1944 -7.71737,-7.9925 -15.82205,-15.60301 -23.36044,-23.77181 z"
       id="path14"
       style="stroke-width:2.67129" />
    <path
       fill="#cdd7a5"
       d="m 775.38584,795.88491 c -20.87079,2.50567 -55.02592,-36.84779 -64.95243,-51.0644 -10.49016,-15.02601 0.23241,-34.33143 16.80776,-37.84418 20.96429,-3.20021 63.52062,46.25341 66.64604,55.31709 5.44409,15.79268 -3.17349,29.06365 -18.50137,33.59149 z"
       id="path15"
       style="stroke-width:2.67129" />
    <path
       fill="#cdd7a5"
       d="m 292.60344,795.88491 c -19.38289,0.65446 -38.14603,-15.14889 -29.80093,-33.89334 4.66141,-10.47947 43.2669,-49.6406 56.90118,-55.01524 18.38916,-1.84587 37.81479,15.18629 29.38687,34.23793 -3.91078,8.83664 -44.27932,50.06 -56.48712,54.67065 z"
       id="path16"
       style="stroke-width:2.67129" />
    <path
       fill="#fefae0"
       d="m 533.07839,896.64333 c -39.7034,-1.56003 -36.09449,-66.91317 -25.58563,-84.59979 5.00066,-8.41455 12.17842,-11.8071 21.22608,-14.2353 37.22177,-3.21356 31.98604,53.86391 28.22753,76.97058 -2.121,13.03857 -10.99235,20.0133 -23.86798,21.86451 z"
       id="path17"
       style="stroke-width:2.67129" />
  </g>
</svg>
